<?xml version="1.0" encoding="UTF-8" standalone="no"?>
<!DOCTYPE svg PUBLIC "-//W3C//DTD SVG 1.1//EN"
 "http://www.w3.org/Graphics/SVG/1.1/DTD/svg11.dtd">
<!-- Generated by graphviz version 2.26.3 (20100126.1600)
 -->
<!-- Title: controllers_diagram Pages: 1 -->
<svg width="572pt" height="447pt"
 viewBox="0.00 0.00 572.00 447.00" xmlns="http://www.w3.org/2000/svg" xmlns:xlink="http://www.w3.org/1999/xlink">
<g id="graph1" class="graph" transform="scale(1 1) rotate(0) translate(4 443)">
<title>controllers_diagram</title>
<polygon fill="none" stroke="none" points="-4,5 -4,-443 569,-443 569,5 -4,5"/>
<!-- _diagram_info -->
<g id="node1" class="node"><title>_diagram_info</title>
<text text-anchor="start" x="321" y="-390.3" font-family="Times Roman,serif" font-size="13.00">Controllers diagram</text>
<text text-anchor="start" x="321" y="-373.3" font-family="Times Roman,serif" font-size="13.00">Date: Oct 20 2016 &#45; 11:53</text>
<text text-anchor="start" x="321" y="-356.3" font-family="Times Roman,serif" font-size="13.00">Migration version: 20160203234652</text>
<text text-anchor="start" x="321" y="-339.3" font-family="Times Roman,serif" font-size="13.00">Generated by RailRoady 1.5.1</text>
<text text-anchor="start" x="321" y="-322.3" font-family="Times Roman,serif" font-size="13.00">http://railroady.prestonlee.com</text>
</g>
<!-- Api::V1::MediasController -->
<g id="node2" class="node"><title>Api::V1::MediasController</title>
<polyline fill="none" stroke="black" points="325,-1.5 492,-1.5 "/>
<path fill="none" stroke="black" d="M492,-1.5C498,-1.5 504,-7.5 504,-13.5"/>
<polyline fill="none" stroke="black" points="504,-13.5 504,-253.5 "/>
<path fill="none" stroke="black" d="M504,-253.5C504,-259.5 498,-265.5 492,-265.5"/>
<polyline fill="none" stroke="black" points="492,-265.5 325,-265.5 "/>
<path fill="none" stroke="black" d="M325,-265.5C319,-265.5 313,-259.5 313,-253.5"/>
<polyline fill="none" stroke="black" points="313,-253.5 313,-13.5 "/>
<path fill="none" stroke="black" d="M313,-13.5C313,-7.5 319,-1.5 325,-1.5"/>
<text text-anchor="middle" x="408.5" y="-248.9" font-family="Times Roman,serif" font-size="14.00">Api::V1::MediasController</text>
<polyline fill="none" stroke="black" points="313,-239.5 504,-239.5 "/>
<text text-anchor="start" x="321" y="-222.9" font-family="Times Roman,serif" font-size="14.00">index</text>
<polyline fill="none" stroke="black" points="313,-213.5 504,-213.5 "/>
<polyline fill="none" stroke="black" points="313,-189.5 504,-189.5 "/>
<text text-anchor="start" x="321" y="-172.9" font-family="Times Roman,serif" font-size="14.00">_layout</text>
<text text-anchor="start" x="321" y="-154.9" font-family="Times Roman,serif" font-size="14.00">allow_iframe</text>
<text text-anchor="start" x="321" y="-136.9" font-family="Times Roman,serif" font-size="14.00">cache_path</text>
<text text-anchor="start" x="321" y="-118.9" font-family="Times Roman,serif" font-size="14.00">render_as_html</text>
<text text-anchor="start" x="321" y="-100.9" font-family="Times Roman,serif" font-size="14.00">render_as_js</text>
<text text-anchor="start" x="321" y="-82.9" font-family="Times Roman,serif" font-size="14.00">render_as_json</text>
<text text-anchor="start" x="321" y="-64.9" font-family="Times Roman,serif" font-size="14.00">render_as_oembed</text>
<text text-anchor="start" x="321" y="-46.9" font-family="Times Roman,serif" font-size="14.00">render_timeout</text>
<text text-anchor="start" x="321" y="-28.9" font-family="Times Roman,serif" font-size="14.00">save_cache</text>
<text text-anchor="start" x="321" y="-10.9" font-family="Times Roman,serif" font-size="14.00">valid_url?</text>
</g>
<!-- Api::V1::BaseApiController -->
<g id="node3" class="node"><title>Api::V1::BaseApiController</title>
<polyline fill="none" stroke="black" points="13,-1.5 261,-1.5 "/>
<path fill="none" stroke="black" d="M261,-1.5C267,-1.5 273,-7.5 273,-13.5"/>
<polyline fill="none" stroke="black" points="273,-13.5 273,-287.5 "/>
<path fill="none" stroke="black" d="M273,-287.5C273,-293.5 267,-299.5 261,-299.5"/>
<polyline fill="none" stroke="black" points="261,-299.5 13,-299.5 "/>
<path fill="none" stroke="black" d="M13,-299.5C7,-299.5 1,-293.5 1,-287.5"/>
<polyline fill="none" stroke="black" points="1,-287.5 1,-13.5 "/>
<path fill="none" stroke="black" d="M1,-13.5C1,-7.5 7,-1.5 13,-1.5"/>
<text text-anchor="middle" x="137" y="-282.9" font-family="Times Roman,serif" font-size="14.00">Api::V1::BaseApiController</text>
<polyline fill="none" stroke="black" points="1,-273.5 273,-273.5 "/>
<polyline fill="none" stroke="black" points="1,-249.5 273,-249.5 "/>
<polyline fill="none" stroke="black" points="1,-225.5 273,-225.5 "/>
<text text-anchor="start" x="9" y="-208.9" font-family="Times Roman,serif" font-size="14.00">_layout</text>
<text text-anchor="start" x="9" y="-190.9" font-family="Times Roman,serif" font-size="14.00">authenticate_from_token!</text>
<text text-anchor="start" x="9" y="-172.9" font-family="Times Roman,serif" font-size="14.00">get_params</text>
<text text-anchor="start" x="9" y="-154.9" font-family="Times Roman,serif" font-size="14.00">remove_empty_params_and_headers</text>
<text text-anchor="start" x="9" y="-136.9" font-family="Times Roman,serif" font-size="14.00">render_error</text>
<text text-anchor="start" x="9" y="-118.9" font-family="Times Roman,serif" font-size="14.00">render_parameters_missing</text>
<text text-anchor="start" x="9" y="-100.9" font-family="Times Roman,serif" font-size="14.00">render_success</text>
<text text-anchor="start" x="9" y="-82.9" font-family="Times Roman,serif" font-size="14.00">render_unauthorized</text>
<text text-anchor="start" x="9" y="-64.9" font-family="Times Roman,serif" font-size="14.00">render_url_invalid</text>
<text text-anchor="start" x="9" y="-46.9" font-family="Times Roman,serif" font-size="14.00">set_custom_response_headers</text>
<text text-anchor="start" x="9" y="-28.9" font-family="Times Roman,serif" font-size="14.00">verify_payload!</text>
<text text-anchor="start" x="9" y="-10.9" font-family="Times Roman,serif" font-size="14.00">verify_signature</text>
</g>
<!-- ApplicationController -->
<g id="node4" class="node"><title>ApplicationController</title>
<polyline fill="none" stroke="black" points="109,-337.5 246,-337.5 "/>
<path fill="none" stroke="black" d="M246,-337.5C252,-337.5 258,-343.5 258,-349.5"/>
<polyline fill="none" stroke="black" points="258,-349.5 258,-425.5 "/>
<path fill="none" stroke="black" d="M258,-425.5C258,-431.5 252,-437.5 246,-437.5"/>
<polyline fill="none" stroke="black" points="246,-437.5 109,-437.5 "/>
<path fill="none" stroke="black" d="M109,-437.5C103,-437.5 97,-431.5 97,-425.5"/>
<polyline fill="none" stroke="black" points="97,-425.5 97,-349.5 "/>
<path fill="none" stroke="black" d="M97,-349.5C97,-343.5 103,-337.5 109,-337.5"/>
<text text-anchor="middle" x="177.5" y="-420.9" font-family="Times Roman,serif" font-size="14.00">ApplicationController</text>
<polyline fill="none" stroke="black" points="97,-411.5 258,-411.5 "/>
<polyline fill="none" stroke="black" points="97,-387.5 258,-387.5 "/>
<polyline fill="none" stroke="black" points="97,-363.5 258,-363.5 "/>
<text text-anchor="start" x="105" y="-346.9" font-family="Times Roman,serif" font-size="14.00">_layout</text>
</g>
</g>
</svg>
