<?xml version="1.0" encoding="UTF-8" standalone="no"?>
<!DOCTYPE svg PUBLIC "-//W3C//DTD SVG 1.1//EN"
 "http://www.w3.org/Graphics/SVG/1.1/DTD/svg11.dtd">
<!-- Generated by graphviz version 2.36.0 (20140111.2315)
 -->
<!-- Title: controllers_diagram Pages: 1 -->
<svg width="586pt" height="589pt"
 viewBox="0.00 0.00 586.00 589.00" xmlns="http://www.w3.org/2000/svg" xmlns:xlink="http://www.w3.org/1999/xlink">
<g id="graph0" class="graph" transform="scale(1 1) rotate(0) translate(4 585)">
<title>controllers_diagram</title>
<polygon fill="none" stroke="none" points="-4,4 -4,-585 582,-585 582,4 -4,4"/>
<!-- _diagram_info -->
<g id="node1" class="node"><title>_diagram_info</title>
<text text-anchor="start" x="305" y="-414.6" font-family="Times,serif" font-size="13.00">Controllers diagram</text>
<text text-anchor="start" x="305" y="-400.6" font-family="Times,serif" font-size="13.00">Date: Mar 19 2019 &#45; 20:13</text>
<text text-anchor="start" x="305" y="-386.6" font-family="Times,serif" font-size="13.00">Migration version: 20171214201528</text>
<text text-anchor="start" x="305" y="-372.6" font-family="Times,serif" font-size="13.00">Generated by RailRoady 1.5.3</text>
<text text-anchor="start" x="305" y="-358.6" font-family="Times,serif" font-size="13.00">http://railroady.prestonlee.com</text>
</g>
<!-- Api::V1::BaseApiController -->
<g id="node2" class="node"><title>Api::V1::BaseApiController</title>
<path fill="none" stroke="black" d="M309,-81.5C309,-81.5 566,-81.5 566,-81.5 572,-81.5 578,-87.5 578,-93.5 578,-93.5 578,-297.5 578,-297.5 578,-303.5 572,-309.5 566,-309.5 566,-309.5 309,-309.5 309,-309.5 303,-309.5 297,-303.5 297,-297.5 297,-297.5 297,-93.5 297,-93.5 297,-87.5 303,-81.5 309,-81.5"/>
<text text-anchor="middle" x="437.5" y="-294.3" font-family="Times,serif" font-size="14.00">Api::V1::BaseApiController</text>
<polyline fill="none" stroke="black" points="297,-286.5 578,-286.5 "/>
<text text-anchor="start" x="305" y="-271.3" font-family="Times,serif" font-size="14.00">about</text>
<polyline fill="none" stroke="black" points="297,-263.5 578,-263.5 "/>
<polyline fill="none" stroke="black" points="297,-239.5 578,-239.5 "/>
<text text-anchor="start" x="305" y="-224.3" font-family="Times,serif" font-size="14.00">_layout</text>
<text text-anchor="start" x="305" y="-209.3" font-family="Times,serif" font-size="14.00">authenticate_from_token!</text>
<text text-anchor="start" x="305" y="-194.3" font-family="Times,serif" font-size="14.00">get_params</text>
<text text-anchor="start" x="305" y="-179.3" font-family="Times,serif" font-size="14.00">remove_empty_params_and_headers</text>
<text text-anchor="start" x="305" y="-164.3" font-family="Times,serif" font-size="14.00">render_error</text>
<text text-anchor="start" x="305" y="-149.3" font-family="Times,serif" font-size="14.00">render_parameters_missing</text>
<text text-anchor="start" x="305" y="-134.3" font-family="Times,serif" font-size="14.00">render_success</text>
<text text-anchor="start" x="305" y="-119.3" font-family="Times,serif" font-size="14.00">render_unauthorized</text>
<text text-anchor="start" x="305" y="-104.3" font-family="Times,serif" font-size="14.00">render_url_invalid</text>
<text text-anchor="start" x="305" y="-89.3" font-family="Times,serif" font-size="14.00">set_custom_response_headers</text>
</g>
<!-- Api::V1::MediasController -->
<g id="node3" class="node"><title>Api::V1::MediasController</title>
<path fill="none" stroke="black" d="M12,-0.5C12,-0.5 228,-0.5 228,-0.5 234,-0.5 240,-6.5 240,-12.5 240,-12.5 240,-456.5 240,-456.5 240,-462.5 234,-468.5 228,-468.5 228,-468.5 12,-468.5 12,-468.5 6,-468.5 -2.84217e-14,-462.5 -2.84217e-14,-456.5 -2.84217e-14,-456.5 -2.84217e-14,-12.5 -2.84217e-14,-12.5 -2.84217e-14,-6.5 6,-0.5 12,-0.5"/>
<text text-anchor="middle" x="120" y="-453.3" font-family="Times,serif" font-size="14.00">Api::V1::MediasController</text>
<polyline fill="none" stroke="black" points="-2.84217e-14,-445.5 240,-445.5 "/>
<text text-anchor="start" x="8" y="-430.3" font-family="Times,serif" font-size="14.00">bulk</text>
<text text-anchor="start" x="8" y="-415.3" font-family="Times,serif" font-size="14.00">delete</text>
<text text-anchor="start" x="8" y="-400.3" font-family="Times,serif" font-size="14.00">index</text>
<polyline fill="none" stroke="black" points="-2.84217e-14,-392.5 240,-392.5 "/>
<polyline fill="none" stroke="black" points="-2.84217e-14,-368.5 240,-368.5 "/>
<text text-anchor="start" x="8" y="-353.3" font-family="Times,serif" font-size="14.00">_layout</text>
<text text-anchor="start" x="8" y="-338.3" font-family="Times,serif" font-size="14.00">allow_iframe</text>
<text text-anchor="start" x="8" y="-323.3" font-family="Times,serif" font-size="14.00">cache_path</text>
<text text-anchor="start" x="8" y="-308.3" font-family="Times,serif" font-size="14.00">clear_html_cache</text>
<text text-anchor="start" x="8" y="-293.3" font-family="Times,serif" font-size="14.00">clear_upstream_cache</text>
<text text-anchor="start" x="8" y="-278.3" font-family="Times,serif" font-size="14.00">get_params</text>
<text text-anchor="start" x="8" y="-263.3" font-family="Times,serif" font-size="14.00">lock_url</text>
<text text-anchor="start" x="8" y="-248.3" font-family="Times,serif" font-size="14.00">locker</text>
<text text-anchor="start" x="8" y="-233.3" font-family="Times,serif" font-size="14.00">notify_airbrake</text>
<text text-anchor="start" x="8" y="-218.3" font-family="Times,serif" font-size="14.00">public_url</text>
<text text-anchor="start" x="8" y="-203.3" font-family="Times,serif" font-size="14.00">render_as_html</text>
<text text-anchor="start" x="8" y="-188.3" font-family="Times,serif" font-size="14.00">render_as_js</text>
<text text-anchor="start" x="8" y="-173.3" font-family="Times,serif" font-size="14.00">render_as_json</text>
<text text-anchor="start" x="8" y="-158.3" font-family="Times,serif" font-size="14.00">render_as_oembed</text>
<text text-anchor="start" x="8" y="-143.3" font-family="Times,serif" font-size="14.00">render_media</text>
<text text-anchor="start" x="8" y="-128.3" font-family="Times,serif" font-size="14.00">render_oembed</text>
<text text-anchor="start" x="8" y="-113.3" font-family="Times,serif" font-size="14.00">render_timeout</text>
<text text-anchor="start" x="8" y="-98.3" font-family="Times,serif" font-size="14.00">render_timeout_media</text>
<text text-anchor="start" x="8" y="-83.3" font-family="Times,serif" font-size="14.00">render_uncached_media</text>
<text text-anchor="start" x="8" y="-68.3" font-family="Times,serif" font-size="14.00">save_cache</text>
<text text-anchor="start" x="8" y="-53.3" font-family="Times,serif" font-size="14.00">should_serve_external_embed?</text>
<text text-anchor="start" x="8" y="-38.3" font-family="Times,serif" font-size="14.00">strip_params</text>
<text text-anchor="start" x="8" y="-23.3" font-family="Times,serif" font-size="14.00">unlock_url</text>
<text text-anchor="start" x="8" y="-8.3" font-family="Times,serif" font-size="14.00">valid_url?</text>
</g>
<!-- ApplicationController -->
<g id="node4" class="node"><title>ApplicationController</title>
<path fill="none" stroke="black" d="M390,-486.5C390,-486.5 538,-486.5 538,-486.5 544,-486.5 550,-492.5 550,-498.5 550,-498.5 550,-568.5 550,-568.5 550,-574.5 544,-580.5 538,-580.5 538,-580.5 390,-580.5 390,-580.5 384,-580.5 378,-574.5 378,-568.5 378,-568.5 378,-498.5 378,-498.5 378,-492.5 384,-486.5 390,-486.5"/>
<text text-anchor="middle" x="464" y="-565.3" font-family="Times,serif" font-size="14.00">ApplicationController</text>
<polyline fill="none" stroke="black" points="378,-557.5 550,-557.5 "/>
<polyline fill="none" stroke="black" points="378,-533.5 550,-533.5 "/>
<polyline fill="none" stroke="black" points="378,-509.5 550,-509.5 "/>
<text text-anchor="start" x="386" y="-494.3" font-family="Times,serif" font-size="14.00">_layout</text>
</g>
</g>
</svg>
