<?xml version="1.0" encoding="UTF-8" standalone="no"?>
<!DOCTYPE svg PUBLIC "-//W3C//DTD SVG 1.1//EN"
 "http://www.w3.org/Graphics/SVG/1.1/DTD/svg11.dtd">
<!-- Generated by graphviz version 2.36.0 (20140111.2315)
 -->
<!-- Title: models_diagram Pages: 1 -->
<svg width="562pt" height="146pt"
 viewBox="0.00 0.00 562.00 146.00" xmlns="http://www.w3.org/2000/svg" xmlns:xlink="http://www.w3.org/1999/xlink">
<g id="graph0" class="graph" transform="scale(1 1) rotate(0) translate(4 142)">
<title>models_diagram</title>
<polygon fill="none" stroke="none" points="-4,4 -4,-142 558,-142 558,4 -4,4"/>
<!-- _diagram_info -->
<g id="node1" class="node"><title>_diagram_info</title>
<text text-anchor="start" x="7.5" y="-93.6" font-family="Times,serif" font-size="13.00">Models diagram</text>
<text text-anchor="start" x="7.5" y="-79.6" font-family="Times,serif" font-size="13.00">Date: Mar 19 2019 &#45; 20:13</text>
<text text-anchor="start" x="7.5" y="-65.6" font-family="Times,serif" font-size="13.00">Migration version: 20171214201528</text>
<text text-anchor="start" x="7.5" y="-51.6" font-family="Times,serif" font-size="13.00">Generated by RailRoady 1.5.3</text>
<text text-anchor="start" x="7.5" y="-37.6" font-family="Times,serif" font-size="13.00">http://railroady.prestonlee.com</text>
</g>
<!-- Media -->
<g id="node2" class="node"><title>Media</title>
<polygon fill="none" stroke="black" points="275,-46 275,-92 337,-92 337,-46 275,-46"/>
<text text-anchor="middle" x="306" y="-76.8" font-family="Times,serif" font-size="14.00">Media</text>
<polyline fill="none" stroke="black" points="275,-69 337,-69 "/>
<text text-anchor="middle" x="306" y="-53.8" font-family="Times,serif" font-size="14.00"> </text>
</g>
<!-- ApiKey -->
<g id="node3" class="node"><title>ApiKey</title>
<path fill="none" stroke="black" d="M367.5,-1C367.5,-1 542.5,-1 542.5,-1 548.5,-1 554.5,-7 554.5,-13 554.5,-13 554.5,-125 554.5,-125 554.5,-131 548.5,-137 542.5,-137 542.5,-137 367.5,-137 367.5,-137 361.5,-137 355.5,-131 355.5,-125 355.5,-125 355.5,-13 355.5,-13 355.5,-7 361.5,-1 367.5,-1"/>
<text text-anchor="middle" x="455" y="-121.8" font-family="Times,serif" font-size="14.00">ApiKey</text>
<polyline fill="none" stroke="black" points="355.5,-114 554.5,-114 "/>
<text text-anchor="start" x="363.5" y="-98.8" font-family="Times,serif" font-size="14.00">id :INTEGER</text>
<text text-anchor="start" x="363.5" y="-83.8" font-family="Times,serif" font-size="14.00">access_token :varchar</text>
<text text-anchor="start" x="363.5" y="-68.8" font-family="Times,serif" font-size="14.00">expire_at :datetime</text>
<text text-anchor="start" x="363.5" y="-53.8" font-family="Times,serif" font-size="14.00">created_at :datetime</text>
<text text-anchor="start" x="363.5" y="-38.8" font-family="Times,serif" font-size="14.00">updated_at :datetime</text>
<text text-anchor="start" x="363.5" y="-23.8" font-family="Times,serif" font-size="14.00">application :varchar</text>
<text text-anchor="start" x="363.5" y="-8.8" font-family="Times,serif" font-size="14.00">application_settings :text</text>
</g>
</g>
</svg>
