<svg xmlns="http://www.w3.org/2000/svg" xmlns:xlink="http://www.w3.org/1999/xlink" width="562pt" height="146pt" viewBox="0 0 562 146"><g id="graph0" class="graph" transform="scale(1 1) rotate(0) translate(4 142)"><title>models_diagram</title><polygon fill="none" stroke="none" points="-4 4 -4 -142 558 -142 558 4 -4 4"/><g id="node1" class="node"><title>_diagram_info</title><text x="7.5" y="-93.6" font-family="Times,serif" font-size="13" text-anchor="start">Models diagram</text><text x="7.5" y="-79.6" font-family="Times,serif" font-size="13" text-anchor="start">Date: Mar 19 2019 - 20:13</text><text x="7.5" y="-65.6" font-family="Times,serif" font-size="13" text-anchor="start">Migration version: 20171214201528</text><text x="7.5" y="-51.6" font-family="Times,serif" font-size="13" text-anchor="start">Generated by RailRoady 1.5.3</text><text x="7.5" y="-37.6" font-family="Times,serif" font-size="13" text-anchor="start">http://railroady.prestonlee.com</text></g><g id="node2" class="node"><title>Media</title><polygon fill="none" stroke="#000" points="275 -46 275 -92 337 -92 337 -46 275 -46"/><text x="306" y="-76.8" font-family="Times,serif" font-size="14" text-anchor="middle">Media</text><polyline fill="none" stroke="#000" points="275 -69 337 -69"/></g><g id="node3" class="node"><title>ApiKey</title><path fill="none" stroke="#000" d="M367.5,-1C367.5,-1 542.5,-1 542.5,-1 548.5,-1 554.5,-7 554.5,-13 554.5,-13 554.5,-125 554.5,-125 554.5,-131 548.5,-137 542.5,-137 542.5,-137 367.5,-137 367.5,-137 361.5,-137 355.5,-131 355.5,-125 355.5,-125 355.5,-13 355.5,-13 355.5,-7 361.5,-1 367.5,-1"/><text x="455" y="-121.8" font-family="Times,serif" font-size="14" text-anchor="middle">ApiKey</text><polyline fill="none" stroke="#000" points="355.5 -114 554.5 -114"/><text x="363.5" y="-98.8" font-family="Times,serif" font-size="14" text-anchor="start">id :INTEGER</text><text x="363.5" y="-83.8" font-family="Times,serif" font-size="14" text-anchor="start">access_token :varchar</text><text x="363.5" y="-68.8" font-family="Times,serif" font-size="14" text-anchor="start">expire_at :datetime</text><text x="363.5" y="-53.8" font-family="Times,serif" font-size="14" text-anchor="start">created_at :datetime</text><text x="363.5" y="-38.8" font-family="Times,serif" font-size="14" text-anchor="start">updated_at :datetime</text><text x="363.5" y="-23.8" font-family="Times,serif" font-size="14" text-anchor="start">application :varchar</text><text x="363.5" y="-8.8" font-family="Times,serif" font-size="14" text-anchor="start">application_settings :text</text></g></g></svg>